<svg width="16" height="16" viewBox="0 0 16 16" fill="none" xmlns="http://www.w3.org/2000/svg">
<g id="ICONS / ICON04">
<path id="Vector" d="M5.73904 5.82674L7.33332 2.6161C7.37972 2.52318 7.4511 2.44503 7.53944 2.39041C7.62777 2.33579 7.72958 2.30685 7.83344 2.30685C7.93731 2.30685 8.03911 2.33579 8.12745 2.39041C8.21579 2.44503 8.28716 2.52318 8.33357 2.6161L9.92785 5.82674L13.492 6.34467C13.5948 6.35892 13.6915 6.40179 13.7711 6.46839C13.8507 6.53498 13.91 6.62261 13.9422 6.72128C13.9743 6.81995 13.9781 6.92568 13.9531 7.02641C13.9281 7.12713 13.8752 7.21879 13.8006 7.29092L11.222 9.7885L11.8308 13.317C11.9087 13.7699 11.4301 14.1148 11.0208 13.9012L7.83344 12.2345L4.64551 13.9012C4.23681 14.1154 3.75816 13.7699 3.8361 13.3164L4.44484 9.78789L1.86626 7.29031C1.792 7.21813 1.73948 7.12656 1.71467 7.02602C1.68986 6.92547 1.69375 6.81998 1.7259 6.72154C1.75806 6.6231 1.81718 6.53565 1.89656 6.46914C1.97594 6.40262 2.07238 6.35971 2.17493 6.34528L5.73904 5.82674Z" fill="white"/>
</g>
</svg>
