<svg width="15" height="16" viewBox="0 0 15 16" fill="none" xmlns="http://www.w3.org/2000/svg">
<g id="2476154" clip-path="url(#clip0_210_109)">
<g id="Group">
<path id="Vector" d="M7.17583 2.41071C7.07973 1.77788 6.88539 1.13728 6.60231 0.511353C5.1323 0.718058 3.80175 1.35863 2.74414 2.29965L6.39788 5.95342C7.11174 5.04556 7.38766 3.80556 7.17583 2.41071Z" fill="white"/>
<path id="Vector_2" d="M6.4017 7.17664C5.52908 7.89714 4.40638 8.27356 3.145 8.27359C2.81081 8.27359 2.46701 8.24719 2.11544 8.19383C1.50125 8.10054 0.882139 7.92556 0.274564 7.67591C0.273902 7.71776 0.27301 7.75959 0.27301 7.80161C0.27301 9.67983 0.976575 11.3935 2.134 12.6943L7.02668 7.80161L6.4017 7.17664Z" fill="white"/>
<path id="Vector_3" d="M5.7878 6.56231L2.13403 2.90857C1.19301 3.96617 0.552439 5.2967 0.345734 6.76671C0.971691 7.04979 1.61232 7.24419 2.24506 7.34029C3.64 7.55214 4.87997 7.27617 5.7878 6.56231Z" fill="white"/>
<path id="Vector_4" d="M13.0287 8.26305C11.6339 8.05117 10.3938 8.32714 9.48602 9.041L13.1398 12.6948C14.0808 11.6371 14.7214 10.3066 14.9281 8.8366C14.3022 8.55355 13.6616 8.35918 13.0287 8.26305Z" fill="white"/>
<path id="Vector_5" d="M8.26165 9.03749L7.63682 8.41266L2.74414 13.3053C4.04498 14.4628 5.75861 15.1663 7.63682 15.1663C7.67885 15.1663 7.72067 15.1654 7.76252 15.1647C7.5129 14.5572 7.33789 13.9381 7.24461 13.3239C6.98975 11.6454 7.35026 10.1413 8.26165 9.03749Z" fill="white"/>
<path id="Vector_6" d="M7.01199 6.56688L7.63683 7.19171L12.5295 2.29903C11.2287 1.14159 9.51504 0.438049 7.63683 0.438049C7.5948 0.438049 7.55298 0.438941 7.51113 0.439631C7.76075 1.04718 7.93576 1.66623 8.02904 2.28051C8.2839 3.95898 7.92339 5.46311 7.01199 6.56688Z" fill="white"/>
<path id="Vector_7" d="M8.09765 13.1938C8.19373 13.8265 8.38815 14.4672 8.6712 15.0931C10.1412 14.8864 11.4717 14.2459 12.5293 13.3048L8.87558 9.65106C8.16174 10.5589 7.88583 11.7989 8.09765 13.1938Z" fill="white"/>
<path id="Vector_8" d="M8.87209 8.42611C9.97586 7.51469 11.48 7.15421 13.1585 7.40907C13.7727 7.50235 14.3918 7.67739 14.9993 7.92698C15 7.88513 15.0009 7.8433 15.0009 7.80125C15.0009 5.92303 14.2974 4.20941 13.1399 2.90857L8.24725 7.80128L8.87209 8.42611Z" fill="white"/>
</g>
</g>
<defs>
<clipPath id="clip0_210_109">
<rect width="14.7277" height="14.7277" fill="white" transform="translate(0.273102 0.439331)"/>
</clipPath>
</defs>
</svg>
