<svg width="35" height="30" viewBox="0 0 35 30" fill="none" xmlns="http://www.w3.org/2000/svg">
<g id="Group 4">
<ellipse id="Oval" cx="17.6125" cy="15" rx="17.2694" ry="15" fill="#4A43EC"/>
<path id="Shape" d="M9.55347 14.5C9.55347 14.0513 9.91724 13.6875 10.366 13.6875H20.9188L16.4536 9.80911C16.0478 9.45658 16.0533 8.82472 16.4652 8.47931C16.7945 8.20321 17.2757 8.2074 17.6001 8.4892L24.4224 14.415C24.4741 14.4599 24.4741 14.5401 24.4224 14.585L17.6015 20.5096C17.2776 20.7909 16.7961 20.7909 16.4723 20.5096C16.0783 20.1674 16.077 19.5562 16.4694 19.2122L20.9188 15.3125H10.366C9.91724 15.3125 9.55347 14.9487 9.55347 14.5Z" fill="white"/>
</g>
</svg>
