<svg width="23" height="22" viewBox="0 0 23 22" fill="none" xmlns="http://www.w3.org/2000/svg">
<g id="Iconly/Light/Profile">
<g id="Profile">
<ellipse id="Ellipse_736" cx="11.1292" cy="6.67149" rx="4.29696" ry="4.37986" stroke="#807A7A" stroke-width="1.5" stroke-linecap="round" stroke-linejoin="round"/>
<path id="Path_33945" fill-rule="evenodd" clip-rule="evenodd" d="M4.31337 17.1428C4.31221 16.8349 4.37977 16.5308 4.51093 16.2535C4.92252 15.4144 6.08319 14.9697 7.0463 14.7683C7.7409 14.6172 8.44509 14.5163 9.15363 14.4663C10.4654 14.3488 11.7848 14.3488 13.0966 14.4663C13.8051 14.5169 14.5093 14.6178 15.2039 14.7683C16.1671 14.9697 17.3277 15.3724 17.7393 16.2535C18.0031 16.8188 18.0031 17.4752 17.7393 18.0406C17.3277 18.9216 16.1671 19.3244 15.2039 19.5174C14.5102 19.6747 13.8057 19.7785 13.0966 19.8278C12.0289 19.9201 10.9562 19.9369 9.88625 19.8782C9.6393 19.8782 9.40058 19.8782 9.15363 19.8278C8.44718 19.7791 7.74543 19.6753 7.05453 19.5174C6.08319 19.3244 4.93075 18.9216 4.51093 18.0406C4.38044 17.7601 4.31295 17.4534 4.31337 17.1428Z" stroke="#807A7A" stroke-width="1.5" stroke-linecap="round" stroke-linejoin="round"/>
</g>
</g>
</svg>
