<svg width="15" height="16" viewBox="0 0 15 16" fill="none" xmlns="http://www.w3.org/2000/svg">
<path id="Vector" fill-rule="evenodd" clip-rule="evenodd" d="M9.52537 1.71214C10.1269 1.11063 10.9427 0.772705 11.7934 0.772705C12.644 0.772705 13.4599 1.11063 14.0614 1.71214C14.6629 2.31366 15.0008 3.12948 15.0008 3.98015C15.0008 4.83082 14.6629 5.64664 14.0614 6.24815L7.56356 12.746C7.19229 13.1172 6.97446 13.3351 6.73061 13.5248C6.44428 13.7488 6.13466 13.9406 5.80587 14.0968C5.52776 14.229 5.23459 14.3269 4.73728 14.4927L2.45489 15.253L1.90553 15.4366C1.68704 15.5096 1.45255 15.5202 1.22835 15.4673C1.00415 15.4144 0.79912 15.3002 0.636241 15.1373C0.473362 14.9744 0.359078 14.7694 0.306205 14.5452C0.253333 14.321 0.263962 14.0865 0.336901 13.868L1.28082 11.0369C1.44659 10.5389 1.54454 10.2458 1.67674 9.96697C1.83361 9.63886 2.02472 9.32924 2.24871 9.04223C2.43777 8.79974 2.65628 8.58123 3.02755 8.20997L9.52537 1.71214ZM2.43092 14.179L4.37698 13.5296C4.91881 13.3488 5.14896 13.2714 5.36336 13.1693C5.62366 13.0446 5.87026 12.8926 6.09836 12.7152C6.28536 12.5686 6.45798 12.398 6.86213 11.9939L12.0475 6.80848C11.3366 6.55655 10.6912 6.14832 10.159 5.61385C9.62498 5.08153 9.21721 4.43617 8.96573 3.72533L3.78035 8.91071C3.37621 9.31417 3.20496 9.48611 3.05906 9.67379C2.88167 9.90174 2.72941 10.1482 2.60491 10.4088C2.50284 10.6232 2.42544 10.8533 2.2446 11.3952L1.59591 13.3412L2.43092 14.179ZM9.798 2.8917C9.82197 3.01157 9.86102 3.1746 9.92746 3.36434C10.1278 3.93774 10.4557 4.45817 10.8864 4.88639C11.3145 5.31706 11.8347 5.64496 12.4078 5.84538C12.5982 5.91182 12.7613 5.95087 12.8811 5.97484L13.3346 5.52138C13.741 5.11213 13.9686 4.55848 13.9676 3.98173C13.9666 3.40497 13.737 2.85213 13.3292 2.4443C12.9214 2.03648 12.3685 1.80691 11.7918 1.8059C11.215 1.8049 10.6614 2.03252 10.2521 2.43892L9.798 2.8917Z" fill="white"/>
</svg>
