<svg width="12" height="12" viewBox="0 0 12 12" fill="none" xmlns="http://www.w3.org/2000/svg">
<g id="iconoir:star">
<path id="Vector" d="M4.44493 4.52947L5.63568 2.13147C5.67034 2.06207 5.72365 2.0037 5.78963 1.9629C5.85561 1.92211 5.93165 1.9005 6.00922 1.9005C6.0868 1.9005 6.16284 1.92211 6.22882 1.9629C6.29479 2.0037 6.3481 2.06207 6.38277 2.13147L7.57352 4.52947L10.2355 4.9163C10.3123 4.92695 10.3845 4.95897 10.444 5.00871C10.5035 5.05845 10.5477 5.1239 10.5718 5.1976C10.5958 5.27129 10.5986 5.35026 10.58 5.42549C10.5613 5.50072 10.5218 5.56918 10.4661 5.62305L8.54014 7.48847L8.99481 10.1239C9.05302 10.4621 8.69552 10.7197 8.38981 10.5602L6.00922 9.31539L3.62818 10.5602C3.32293 10.7202 2.96543 10.4621 3.02364 10.1234L3.47831 7.48801L1.55239 5.6226C1.49693 5.56868 1.4577 5.50029 1.43917 5.4252C1.42063 5.3501 1.42354 5.27131 1.44756 5.19779C1.47157 5.12426 1.51573 5.05895 1.57502 5.00927C1.6343 4.95959 1.70634 4.92754 1.78293 4.91676L4.44493 4.52947Z" stroke="white" stroke-width="0.6875" stroke-linecap="round" stroke-linejoin="round"/>
</g>
</svg>
