<svg width="28" height="28" viewBox="0 0 28 28" fill="none" xmlns="http://www.w3.org/2000/svg">
<g id="iconamoon:profile">
<g id="Group">
<path id="Vector" d="M4.66663 20.9999C4.66663 19.7622 5.15829 18.5753 6.03346 17.7001C6.90863 16.8249 8.09562 16.3333 9.33329 16.3333H18.6666C19.9043 16.3333 21.0913 16.8249 21.9665 17.7001C22.8416 18.5753 23.3333 19.7622 23.3333 20.9999C23.3333 21.6188 23.0875 22.2122 22.6499 22.6498C22.2123 23.0874 21.6188 23.3333 21 23.3333H6.99996C6.38112 23.3333 5.78763 23.0874 5.35004 22.6498C4.91246 22.2122 4.66663 21.6188 4.66663 20.9999Z" stroke="#979797" stroke-width="2" stroke-linejoin="round"/>
<path id="Vector_2" d="M14 11.6666C15.933 11.6666 17.5 10.0996 17.5 8.16663C17.5 6.23363 15.933 4.66663 14 4.66663C12.067 4.66663 10.5 6.23363 10.5 8.16663C10.5 10.0996 12.067 11.6666 14 11.6666Z" stroke="#979797" stroke-width="2"/>
</g>
</g>
</svg>
