<svg width="16" height="16" viewBox="0 0 16 16" fill="none" xmlns="http://www.w3.org/2000/svg">
<g id="Vector">
<path d="M13.1012 1.73117C13.4674 1.73117 13.8186 1.88264 14.0775 2.15226C14.3365 2.42189 14.4819 2.78757 14.4819 3.16887V9.87814C14.4819 10.2594 14.3365 10.6251 14.0775 10.8947C13.8186 11.1644 13.4674 11.3158 13.1012 11.3158H11.4136V14.3804C11.4136 14.5101 11.2725 14.5861 11.1706 14.5094L6.91924 11.3158H2.97589C2.6097 11.3158 2.25851 11.1644 1.99958 10.8947C1.74064 10.6251 1.59517 10.2594 1.59517 9.87814V3.16887C1.59517 2.78757 1.74064 2.42189 1.99958 2.15226C2.25851 1.88264 2.6097 1.73117 2.97589 1.73117H13.1012ZM15.4024 3.16887C15.4024 2.53337 15.16 1.92389 14.7284 1.47453C14.2968 1.02516 13.7115 0.772705 13.1012 0.772705H2.97589C2.36558 0.772705 1.78026 1.02516 1.34869 1.47453C0.917135 1.92389 0.674689 2.53337 0.674689 3.16887V9.87814C0.674689 10.5136 0.917135 11.1231 1.34869 11.5725C1.78026 12.0219 2.36558 12.2743 2.97589 12.2743H6.62162L10.6319 15.2871C11.3425 15.8206 12.3341 15.2922 12.3341 14.3797V12.2743H13.1012C13.7115 12.2743 14.2968 12.0219 14.7284 11.5725C15.16 11.1231 15.4024 10.5136 15.4024 9.87814V3.16887Z" fill="white"/>
<path d="M13.1012 1.73117C13.4674 1.73117 13.8186 1.88264 14.0775 2.15226C14.3365 2.42189 14.4819 2.78757 14.4819 3.16887V9.87814C14.4819 10.2594 14.3365 10.6251 14.0775 10.8947C13.8186 11.1644 13.4674 11.3158 13.1012 11.3158H11.4136V14.3804C11.4136 14.5101 11.2725 14.5861 11.1706 14.5094L6.91924 11.3158H2.97589C2.6097 11.3158 2.25851 11.1644 1.99958 10.8947C1.74064 10.6251 1.59517 10.2594 1.59517 9.87814V3.16887C1.59517 2.78757 1.74064 2.42189 1.99958 2.15226C2.25851 1.88264 2.6097 1.73117 2.97589 1.73117H13.1012Z" fill="white"/>
</g>
</svg>
