<svg width="16" height="16" viewBox="0 0 16 16" fill="none" xmlns="http://www.w3.org/2000/svg">
<g id="Group">
<path id="Vector" d="M10.6034 9.58778C12.0065 9.56298 12.3152 7.63281 10.9912 7.17313L9.46252 8.83104C9.65329 9.28019 10.103 9.58778 10.6034 9.58778Z" fill="white"/>
<path id="Vector_2" d="M15.1312 7.08292C14.9346 5.90379 14.3822 4.99369 13.5245 4.42542C13.1249 4.85906 12.0242 6.0524 11.6087 6.50314C12.2771 6.86539 12.705 7.56689 12.705 8.34952C12.7097 10.1634 10.5208 11.1267 9.18688 9.90184C9.0597 10.1832 8.88131 10.4422 8.65659 10.6669C7.76591 11.6326 5.00699 11.866 3.8293 11.8317C3.79488 10.651 4.02927 7.89343 4.99407 7.00437C5.48635 6.51235 6.12857 6.26 6.77511 6.24763C7.48264 5.59301 8.46381 4.68507 9.16847 4.03295C8.18969 4.29088 6.75603 4.97372 6.31876 4.32903C6.11413 3.84607 7.04445 2.72383 6.31042 1.78202C5.70886 1.02669 4.36252 1.16857 3.6017 1.70519C-0.102686 4.26282 -0.598018 9.88216 2.63587 13.0082C6.59473 16.9975 13.5006 15.1902 15.0178 9.78415C15.1002 9.44391 15.336 8.32851 15.1312 7.08292Z" fill="white"/>
<path id="Vector_3" d="M8.65658 7.00432C8.89712 7.24487 9.08444 7.52426 9.21276 7.82839C9.70274 7.29773 12.2898 4.49092 12.7194 4.02543L15.0163 1.53424C15.2672 1.26204 15.2739 0.859214 15.0316 0.616655C14.7887 0.374097 14.3853 0.381002 14.1131 0.632768L10.7539 3.74172C10.0245 4.41654 8.57365 5.75968 7.82935 6.44842C8.13031 6.57445 8.412 6.75975 8.65658 7.00432Z" fill="white"/>
<path id="Vector_4" d="M7.58546 7.28489C6.93009 6.96597 6.13589 7.08443 5.60442 7.61406C5.05548 8.09941 4.74381 9.94651 4.71216 10.9483C5.71686 10.9156 7.5595 10.6058 8.04612 10.056C8.37241 9.72976 8.55195 9.29615 8.55195 8.8352C8.55186 8.37362 8.37212 7.93997 8.04612 7.61435V7.61406C7.90801 7.47566 7.75205 7.36603 7.58546 7.28489Z" fill="white"/>
</g>
</svg>
